<svg width="54" height="85" viewBox="0 0 54 85" fill="none" xmlns="http://www.w3.org/2000/svg">
<g opacity="0.5">
<rect width="54" height="85" fill="#3D3C42"/>
<path d="M33.9453 43.5C33.9453 43.3125 33.8516 43.1016 33.7109 42.9609L22.7891 32.0391C22.6484 31.8984 22.4375 31.8047 22.25 31.8047C22.0625 31.8047 21.8516 31.8984 21.7109 32.0391L20.5391 33.2109C20.3984 33.3516 20.3047 33.5625 20.3047 33.75C20.3047 33.9375 20.3984 34.1484 20.5391 34.2891L29.75 43.5L20.5391 52.7109C20.3984 52.8516 20.3047 53.0625 20.3047 53.25C20.3047 53.4609 20.3984 53.6484 20.5391 53.7891L21.7109 54.9609C21.8516 55.1016 22.0625 55.1953 22.25 55.1953C22.4375 55.1953 22.6484 55.1016 22.7891 54.9609L33.7109 44.0391C33.8516 43.8984 33.9453 43.6875 33.9453 43.5Z" fill="white"/>
</g>
</svg>
