<svg width="25" height="25" viewBox="0 0 25 25" fill="none" xmlns="http://www.w3.org/2000/svg">
<path d="M24.5 2.875C24.5 1.45312 23.2969 0.25 21.875 0.25H2.625C1.14844 0.25 0 1.45312 0 2.875V22.125C0 23.6016 1.14844 24.75 2.625 24.75H13.3438V15.0703H10.0625V11.4062H13.3438V8.67188C13.3438 5.5 15.3125 3.75 18.1016 3.75C19.4688 3.75 20.6172 3.85938 21 3.91406V7.25H19.0312C17.5 7.25 17.1719 7.96094 17.1719 9V11.4062H21L20.5078 15.0703H17.1719V24.75H21.875C23.2969 24.75 24.5 23.6016 24.5 22.125V2.875Z" fill="white"/>
</svg>
