<svg width="638" height="80" viewBox="0 0 638 80" fill="none" xmlns="http://www.w3.org/2000/svg">
<g clip-path="url(#clip0)">
<path d="M4.08398 6.29788H18.8856L48.3187 47.8298V6.29788H65.8424V75.5745H50.8707L21.4376 34.383V75.5745H4.08398V6.29788Z" fill="white"/>
<path d="M163.328 57.0213C166.05 53.617 167.412 48.5106 167.412 41.3617C167.412 33.7021 166.05 28.2553 163.498 25.0213C160.776 21.7872 156.523 20.2553 150.738 20.2553C144.784 20.2553 140.53 21.7872 137.808 25.0213C135.086 28.2553 133.895 33.7021 133.895 41.3617C133.895 48.5106 135.256 53.617 137.978 57.0213C140.701 60.4255 144.954 61.9574 150.738 61.9574C156.353 61.9574 160.606 60.2553 163.328 57.0213ZM124.708 67.9149C118.924 62.1277 116.031 53.2766 116.031 41.1915C116.031 28.5957 118.924 19.5745 124.708 13.7872C130.493 8 138.999 5.10638 150.568 5.10638C161.967 5.10638 170.644 8 176.429 13.7872C182.213 19.5745 185.105 28.5957 185.105 41.1915C185.105 53.1064 182.213 62.1277 176.429 67.9149C170.644 73.7021 161.967 76.5957 150.568 76.5957C139.169 76.766 130.493 73.7021 124.708 67.9149Z" fill="white"/>
<path d="M226.107 6.29788H244.312L261.835 55.8298L279.529 6.29788H297.734L271.363 75.5745H252.648L226.107 6.29788Z" fill="white"/>
<path d="M378.889 63.3192C382.121 63.3192 384.503 62.6383 386.034 61.2766C387.565 59.9149 388.246 57.7021 388.246 54.4681C388.246 51.7447 387.395 49.7021 385.864 48.5106C384.333 47.1489 381.781 46.6383 378.208 46.6383H363.066V63.4894H378.889V63.3192ZM377.187 34.5532C382.972 34.5532 385.864 32 385.864 26.8936C385.864 24.1702 385.184 22.1277 383.652 20.9362C382.291 19.5745 379.739 19.0638 376.337 19.0638H363.066V34.7234H377.187V34.5532ZM345.883 6.29788H382.461C389.267 6.29788 394.541 8.00001 398.114 11.2341C401.687 14.4681 403.558 19.2341 403.558 25.1915C403.558 28.766 402.877 31.6596 401.516 34.2128C400.155 36.766 398.284 38.6383 395.902 40C399.305 41.1915 401.857 43.0638 403.558 45.2766C405.259 47.6596 406.11 50.8936 406.11 54.9787C406.11 61.617 404.239 66.5532 400.325 70.1277C396.412 73.5319 390.968 75.4043 383.652 75.4043H346.053V6.29788H345.883Z" fill="white"/>
<path d="M464.294 69.617C458.679 64.8511 455.787 58.0426 455.787 49.3617V6.29788H472.971V47.6596C472.971 52.4255 474.162 56 476.714 58.383C479.266 60.766 482.838 61.9575 487.432 61.9575C492.196 61.9575 495.768 60.766 498.15 58.383C500.702 56 501.893 52.4255 501.893 47.6596V6.29788H519.247V49.1915C519.247 57.8723 516.355 64.6809 510.74 69.4468C505.126 74.2128 497.3 76.5958 487.432 76.5958C477.734 76.766 469.908 74.2128 464.294 69.617Z" fill="white"/>
<path d="M598.87 62.2979C602.954 62.2979 606.186 61.7872 608.568 60.5957C610.95 59.4043 612.821 57.3617 614.182 54.2979C615.543 51.234 616.054 46.9787 616.054 41.3617C616.054 35.7447 615.543 31.3192 614.353 28.2553C613.162 25.1915 611.29 22.9787 608.908 21.617C606.356 20.2553 603.124 19.7447 599.041 19.7447H588.662V62.2979H598.87ZM571.139 6.29788H601.082C611.971 6.29788 619.967 9.02129 625.411 14.6383C630.855 20.0851 633.578 29.1064 633.578 41.3617C633.578 53.1064 630.855 61.617 625.411 67.234C619.967 72.8511 611.971 75.5745 601.082 75.5745H571.139V6.29788Z" fill="white"/>
</g>
<defs>
<clipPath id="clip0">
<rect width="638" height="80" fill="white"/>
</clipPath>
</defs>
</svg>
